<?xml version="1.0" encoding="utf-8"?>
<!-- Generator: Adobe Illustrator 19.2.1, SVG Export Plug-In . SVG Version: 6.00 Build 0)  -->
<svg version="1.1" id="Layer_1" xmlns="http://www.w3.org/2000/svg" xmlns:xlink="http://www.w3.org/1999/xlink" x="0px" y="0px"
	 viewBox="0 0 494.2 468.2" style="enable-background:new 0 0 494.2 468.2;" xml:space="preserve">
<style type="text/css">
	.st0{fill:#462B40;}
	.st1{fill:#FAF9FA;}
	.st2{fill:#E01BA5;}
</style>
<g>
	<path class="st0" d="M144,38.5c-2.6,0.4-5.3,0.9-7.9,1.1c-18.7,1.9-34.4,9-46.6,24c-18.3,22.5-38,43.7-59.9,62.9
		c-4.2,3.6-7.6,8-9.6,13.3c-7.3,19.4-9.1,39.6-0.9,58.5c4.6,10.7,5.6,20.5,5.6,31.6c-0.3,43.2,9.9,84,33.8,120.3
		c49.2,74.7,119,109,208.1,100.9c56.5-5.2,104.8-29.2,142.5-72.1c39.1-44.6,57.8-96.9,55-156.5c-0.2-4,1.5-6.3,3.8-8.6
		c6.2-6.2,10.3-13.4,12-22c2.6-12.5,2.6-25.1,0.9-37.8c-1.6-12.5-7.4-22.5-17.1-30.6c-9.3-7.8-18-16.3-26.7-24.9
		c-12.6-12.4-23.5-26.4-35.5-39.3c-9-9.8-20.1-15.7-33.2-17.8c-8.4-1.3-16.8-2.3-25.2-3.4c-6.5-4.2-13.8-6.6-20.8-9.5
		c-36.8-15.2-75.1-18.4-114.2-12.3C185.6,19.8,163.9,26.7,144,38.5z"/>
	<path class="st1" d="M343.2,38.1c8.4,1.1,16.8,2.1,25.2,3.4c13.1,2,24.2,8,33.2,17.8c12,13,22.9,26.9,35.5,39.3
		c8.7,8.6,17.3,17.1,26.7,24.9c9.7,8.1,15.4,18.2,17.1,30.6c1.7,12.6,1.7,25.2-0.9,37.8c-1.8,8.6-5.9,15.8-12,22
		c-2.3,2.3-4,4.6-3.8,8.6c2.8,59.5-15.9,111.9-55,156.5c-37.6,42.9-86,66.9-142.5,72.1c-89.1,8.1-158.8-26.1-208.1-100.9
		c-23.9-36.3-34.1-77.1-33.8-120.3c0.1-11.1-0.9-20.9-5.6-31.6c-8.1-18.9-6.3-39.1,0.9-58.5c2-5.2,5.4-9.6,9.6-13.3
		c21.9-19.2,41.6-40.4,59.9-62.9c12.1-15,27.9-22,46.6-24c2.6-0.3,5.3-0.8,7.9-1.1c4.3,0.1,8.1-1.7,11.9-3.4
		c27.6-11.8,56.4-17.4,86.4-17.9c31.9-0.6,62,7,91.3,18.5C336.7,36.9,339.8,38.4,343.2,38.1z M241.7,404.9c0-0.1-0.1-0.2-0.1-0.2
		c0,0.1-0.1,0.2-0.1,0.3c-2.8-3.5-6.6-3.3-10.5-2.6C234.6,403.2,238.1,404.1,241.7,404.9z M155.9,122.9c0.3,0.3,0.5,0.6,0.8,0.9
		c-2.3,10.7,7.6,19.7,17.4,18.2c5.5-0.9,9.7-4.1,14-7.3c2.4-1.8,4.7-3.6,8-2.3c-1-17.3-7.9-28.1-18.8-29.9c-12.2-2-23,6.3-29.4,22.9
		C150.9,125.4,153.2,123.5,155.9,122.9z M290.4,139.7l-0.1,0c5.8,8.4,14.4,10.7,23.8,11.5c6.5,1.1,12.9,2.6,18,7.2
		c4,10.3,12.3,17.2,19.8,24.7c1.5,1.5,3.4,2.9,2.5,5.5c-2.5,1-4.3-1.7-7.3-1.8c5.1,7.2,8.3,14.4,8.6,22.6c-1.9,0.4-2.9-1.3-4.4-2
		c-6.8-3.5-13.7-6.8-21.4-7.6c6.8,3.7,13.3,7.6,19.1,12.5c4.8,4,9,8.4,11.9,14c3.9,7.6,2.6,16.8-2.9,22.8c-0.7,0.7-1.3,1.6-2.5,1.3
		c-1.2-0.2-1.3-1.4-0.9-1.9c2.2-2.3,0.4-4.9,0-6.9c-1.1-5.7-5.5-9.3-10.8-11c-4.3-1.4-7.5,1.8-10,4.9c-1.8,2.3-3.3,4.9-4.9,7.5
		c-5.3,8.7-12,16.4-21.6,19.6c-18.1,6.2-35.4,2.5-50.6-8.7c-9.6-7.1-9.2-26.2,5.1-30.6c6.2-1.9,12.7-3.2,18.1-7.1
		c7.4-4.1,12.1-12.4,10.7-18.8c6.6-18.8-1.3-34-20.4-39.1c-16.8-4.4-33.6-4.4-50.3,0.1c-14.9,4-21.1,12.4-20.8,28
		c0.1,3.2,0.5,6.3,1.2,9.3c2.7,11.6,8.5,20.6,20.8,23.9c3.2,0.9,6.4,1.7,9.3,3.1c6.3,3,11.8,6.9,12.9,14.6
		c1.1,7.4-1.3,13.8-7.5,17.9c-20.3,13.5-51.1,16.4-68.9-10.4c-2.5-3.7-4.8-7.6-7.6-11.1c-3.4-4.2-7.9-4.7-12.4-1.7
		c-3.8,2.5-6.3,5.9-7,10.5c-0.3,2.2-0.6,4.4-0.9,6.9c-7-5.5-8.7-16-5.1-23.3c3.3-6.7,9.7-10.9,13.6-18.2c-6.6,1.8-10.5,6-15.1,11.5
		c-0.1-13.2-4.2-24.2-7.9-35.2c-4.4-13.4-6.2-27.2-4.7-41.4c2.6-24,12.2-45.4,23.3-66.4c1.2-2.2,2.5-4.4,3.9-7.1
		c-9.1,0.1-17.3,1-25.8,3.4c2.3,1.9,5.1,1.4,6.7,3.7c-3.1,1.6-7,0.8-9.7,3.8c3.5,0.8,6.8,1.6,10.8,2.6c-6.5,4-12.7,6.9-17.1,12.3
		c-0.5,0.3-1.1,0.6-1.6,0.8c0.7,0.7,1.5,0.4,2.3,0.2c2.1-0.4,3.9-1.8,6.9-1.3c-1.9,2.1-3.7,3.8-5.2,5.7c-1.1,1.4-3.3,2.4-2.9,4.2
		c0.5,2,3.1,1.5,5.1,1.9c-1.8,2.7-3.3,4.8-4.8,7.1c-0.5,0.7-1.5,2-0.4,2.5c3.7,1.7,1.2,4.1,0.5,5.8c-4.8,12.4-6,25.1-4,38.3
		c2.2,14.1,6.4,27.9,6.7,42.3c0.3,13-0.6,25.7-7.2,37.2c-6.2,10.7-14.2,20.1-23,28.7c-3.9,3.8-8.3,6.7-13.6,8.2
		c-4.9,1.4-9.8,2.1-15.2-0.4c1.5-1.1,2.6-1.9,3.6-2.7c14.4-11.3,17.3-28.7,7.2-43.9c-4.2-6.3-9.8-11.4-15.5-16.2
		c-10.2-8.7-16.2-19-18.5-32.5c-3.6-21.3-1.2-39.7,17.5-53.5c5.3-3.9,9.8-9.1,14.6-13.8c0.3,0.2,0.6,0.5,0.9,0.7
		c-1.4,3.6-2.8,7.1-4.4,11.1c3.8-0.9,4.8-4,6.5-6.2c11.7-15.4,22.6-31.3,34.8-46.3c10.5-12.8,23.7-20,40.4-20.8
		c8-0.4,15.8-2.1,23.5-4.4c4.2-1.3,8.5-2.7,11.6-6.3c-0.5-0.3-0.8-0.6-1-0.6c-14.8,2.9-29.8,3.4-44.7,4.6
		c-16.1,1.3-29.2,8.1-39.4,20.8C77,86.8,58.9,105.3,38.7,121.5c-14.6,11.8-20.2,26.3-17.6,44.9c2.9,20.8,8.9,39.5,26.6,52.7
		c4.5,3.4,8.2,7.8,11.5,12.4c7.4,10.4,7.1,21.1,1.5,32c-1.2,2.3-2.6,4.7-5.6,1.8c5.2-13.5,3.1-23.8-7.3-33.6
		c-3.7-3.5-7.9-6.7-11.9-9.9c-1.1-0.9-2.3-2.5-3.8-2c-1.7,0.6-0.9,2.6-0.9,4c-0.9,17.4,0.4,34.6,3.9,51.7C54,368,136,449,246.5,446
		c5.9-0.2,12,0.3,17.7-2.1c0.5-0.1,1.2-0.1,1.4-0.4c1-1.7-0.9-1.3-1.4-1.4c-7.7-1.9-15.5-3.6-23.3-5.5
		c-27.2-6.7-53.1-16.3-75.8-33.2c-10.8-8.1-18.2-18.1-20.2-32c-2.8-19.7-2.7-40-12.2-58.5c2.6,1,3.3,3.2,4.4,5.1
		c5.7,10.2,10.6,20.8,13.4,32.3c2.3,9.4,6.3,18.2,13.3,25.3c1.1-1.5,0.6-2.6,0-3.8c-3.7-7-6.1-14.5-6.8-22.3
		c-1.4-14.3-6.3-27.1-14.5-38.8c-2.7-3.9-5.3-8-6.2-13.4c2.4,1,3.5,2.7,4.7,4.2c5,6.6,10.1,13.3,17.3,17.4
		c6.1,3.5,13.1,5.6,19.8,7.9c8.4,2.9,14.9,7.8,19.2,15.7c2.8,5.1,6.1,9.9,9.9,14.4c13.1,15.4,30.1,20.3,49.5,17.3
		c18.8-2.9,31.9-14.4,40.6-30.8c4.7-8.8,11.5-14.2,20.7-17.4c15.1-5.3,29.2-12.2,39.1-25.5c0.2-0.2,0.6-0.3,1.8-0.8
		c-6.3,14.1-14.6,25.9-23.9,37.4c4.2-2.2,8.4-4.4,12.6-6.6c-5.9,7.2-8.8,15.2-10.5,23.8c-1.9,10-4.7,19.7-8.1,29.3
		c-0.7,2-1.9,3.9-1.5,6.8c10.7-8,16.2-19.3,22.4-30.2c0.7,15.6-6.3,29.5-9.1,44.4c18.1-15.9,24.9-37.7,31.1-59.9
		c0.4,0.1,0.8,0.2,1.2,0.4c0.4,6.4,0.8,12.8,1.3,19.2c-0.3,12.8-2.8,25.4-2.7,39.4c4.9-5.9,6.3-11.8,7.2-17.9
		c3.4-15.3,1.1-30.5-1-46.8c3,3.4,2.4,7.2,5.2,9.6c0.9-12.1-1.8-23.3-5.3-34.3c-5.5-17.2-4-33.3,5.5-48.8c3.4-5.5,3-5.7,7.2-0.6
		c0.2,0.3,0.4,0.6,0.5,0.8c-7,14.7-6.6,29.2,0.8,43.7c1.4,2.7,2.4,5.5,3.6,8.2c7.5,16.2,11,33.1,10,50.9c-0.1,1.5-0.8,3.2,0.9,5
		c34.4-43.7,53.7-92,51.7-149.1c-5.3,3.7-9,7.2-12.4,11.1c-4.6,5.3-6.9,11.2-5.8,18.4c0.6,4.1,1.3,8.2,2.6,12.2
		c-2.5,2.9-3.7,0.4-4.8-1.3c-7.5-11.7-6.5-25.4,2.5-36.1c4.5-5.4,10-9.8,15.1-14.5c7.5-6.9,13.3-14.9,15.8-24.9c1.5-6,2.7-12,3.9-18
		c3.9-20-0.8-36.8-17.8-49.4c-6.7-5-12.6-10.8-18.8-16.4c-14.9-13.2-27.3-28.6-40.8-43.2c-8.6-9.3-19.3-14.4-32-15.5
		c-11.4-1-22.9-1.9-34.3-3c-5.2-0.5-10.3-1.3-15.4-2c3.2,4,7.5,5.7,11.9,7.1c11.6,3.8,23.9,4.3,35.8,6.2c-2.6,2-6.2,1.5-9.1,3.6
		c3.6,1.2,6.8,2.2,10,3.3c-6.6,1.4-13.1,1-20.5,2.3c7.4,5.3,15.7,3.6,22.7,6.7c-4.4,0-8.8,0-14.6,0c5,2.4,9,3.3,12.6,5.4
		c3.6,2,7.9,2.8,10.6,7.5c-7.9-2.3-14.8-5.2-22.4-4.9c-0.4,0.1-0.8,0.1-1.2,0.2c0.2,0.2,0.4,0.5,0.7,0.7l-0.2,0
		c4.2,10.5,8.5,21.1,10,32.5c-5.7-7-10.1-15-18.8-20.4c2.5,4.5,4.7,7.9,6.3,11.4c5.8,12.2,10.6,24.8,9.5,38.7
		c-4.4-10-8.4-20.3-13.3-30.1c-7.8-15.6-20.7-24.3-38-26.7c-5.1-0.7-9.6,0.6-12.5,5.4c-0.9,1.5-2,3.4-4.2,3.1
		c-2.6-0.3-3.2-2.6-4.1-4.6c-1.4-3.3-0.6-6.9-1.2-10.4c-8.4,15.2-10.5,31.1-6,47.8c1.4,5.1,4.3,9.3,8.9,12.2
		C289.1,139.2,289.5,139.8,290.4,139.7z M205.9,31.1c26.7-3.4,53.4-3.2,80.2-0.2C259.3,24.5,232.6,24.3,205.9,31.1z M261.9,387.9
		c4.9,0.9,9.7,0.6,14.5-0.3c5.7-1,10.8-3.3,14.7-7.8c1.1-1.3,2.2-2.8,0.9-4.5c-1.2-1.5-2.8-0.7-4.1,0
		C279.4,379.8,270.8,384.1,261.9,387.9z M311.1,370.2c-6.5,13.5-14.4,25.9-24.8,36.6C299.4,397.8,308.8,386.3,311.1,370.2z
		 M125.5,63.8c10.1,3.3,17.8,2.3,25.9-3.2C142.2,60.2,133.9,61.7,125.5,63.8z M182.9,93c2.7-0.5,4.6-1.9,4.7-4.9
		c0.1-2.2-1-3.7-3.3-3.2c-2.4,0.5-4.9,1.7-4.9,4.8C179.3,91.8,180.6,92.9,182.9,93z M167.7,88.9c-2,0.5-3.9,1.3-4.2,3.6
		c-0.2,1.4,1.1,2.1,2.3,1.9c2-0.4,4-1.2,4.3-3.5C170.3,89.6,169,89,167.7,88.9z M211.5,240.4c0.9-0.4,1.9-0.9,1.9-2.3
		c0-1.3-0.8-2.2-2.1-2.2c-1.2,0.1-2.2,0.9-2.2,2.2C209.1,239.5,209.8,240.3,211.5,240.4z M225,237.4c1.3-0.1,2.2-0.7,2.3-2
		c0.1-1.4-0.9-2.1-2.2-2.2c-1.4-0.2-2.3,0.7-2.3,2C222.8,236.4,223.6,237.3,225,237.4z M267.7,245.9c-0.1-1.4-0.8-2.3-2.1-2.3
		c-1.3,0-2.2,0.9-2.2,2.2c0,1.1,0.7,1.9,1.8,1.9C266.6,247.9,267.5,247.3,267.7,245.9z M285.7,238.1c-0.2-1.3-0.9-2.2-2.3-2.1
		c-1.3,0.1-2.2,0.9-2.1,2.3c0.1,1.4,1,2.2,2.3,2.1C285,240.4,285.6,239.4,285.7,238.1z M218.1,228.7c-1.4,0.2-2.2,1-2.1,2.3
		c0.1,1.1,0.9,1.7,2,1.7c1.2,0.1,2-0.7,2.1-1.7C220.2,229.8,219.4,228.9,218.1,228.7z M274.5,230.7c0,1.4,0.9,1.9,2.2,2
		c1.1,0,2.1-0.6,2.1-1.5c0.1-1.2-0.6-2.3-1.9-2.4C275.6,228.7,274.8,229.5,274.5,230.7z M236.2,239.5c-0.4-1.3-1.2-2-2.5-1.9
		c-1.4,0.1-2.2,1-1.9,2.3c0.2,1,1.1,1.7,2.2,1.7C235.3,241.6,236,240.9,236.2,239.5z M261.4,237.6c-1.5,0-2.4,0.7-2.5,1.9
		c-0.1,1.3,0.8,2.1,2.1,2.2c1.1,0,2-0.7,2.1-1.7C263.3,238.7,262.5,237.9,261.4,237.6z M276.7,242.2c-0.1-1.4-1-2-2.3-1.8
		c-1.2,0.2-2.2,0.8-2,2.2c0.2,1.3,1,2.1,2.4,2C276.1,244.5,276.6,243.5,276.7,242.2z M220.6,244.5c0.7-0.2,1.7-0.7,1.8-2.1
		c0.1-1.5-0.8-2-2.1-2.1c-1.4-0.1-2.1,0.6-2.1,2C218.1,243.6,218.6,244.6,220.6,244.5z"/>
	<path class="st2" d="M343.2,38.1c-3.5,0.3-6.5-1.2-9.6-2.4c-29.4-11.5-59.4-19-91.3-18.5c-30,0.5-58.8,6.1-86.4,17.9
		c-3.8,1.6-7.6,3.5-11.9,3.4c19.9-11.8,41.6-18.7,64.2-22.2c39.1-6.1,77.3-2.9,114.2,12.3C329.4,31.5,336.7,33.9,343.2,38.1z"/>
	<path class="st1" d="M333.4,157.5c-0.4,0.3-0.9,0.6-1.3,0.9c-5.1-4.6-11.5-6.2-18-7.2c0.8-0.9,2.6-0.1,3.2-2.1
		c-4.5-1.2-8.7-2.7-12.6-5c-2.5-1.4-4.8-3.2-5.3-6.2c-0.2-1.4-0.7-3.3,0.9-4.1c1.6-0.9,2.3,0.9,3,1.9c7.1,10.1,23.5,9.6,31.4-1.3
		c1.7-2.4,2.5-6.2,4.7-7.3c2.5-1.2,4.3,3.5,8.1,3.8c-4.8-11.8-10.7-22.2-21.9-28.4c-12.4-6.8-25-2.1-30.1,11.1
		c-1.8,4.6-2.9,9.6-4.2,14.3c-0.8,2.7-0.7,5.3,1.1,7.6c2.2,2.9,0.6,3.8-2.1,4.2l0.1,0c-0.2-0.9-0.9-0.9-1.6-1.1
		c-4.6-2.9-7.6-7.1-8.9-12.2c-4.4-16.6-2.4-32.6,6-47.8c0.6,3.5-0.2,7.1,1.2,10.4c0.8,2,1.5,4.3,4.1,4.6c2.2,0.3,3.2-1.6,4.2-3.1
		c2.9-4.8,7.4-6,12.5-5.4c17.2,2.3,30.2,11.1,38,26.7c4.9,9.8,8.9,20,13.3,30.1c2,4.3,0.2,8.4-0.8,12.5c-2.5-4-4.3-8.5-7.5-12.2
		c-3.8-4.5-7.9-4.7-12.4-1C333.1,145.6,332.9,151.4,333.4,157.5z"/>
	<path class="st2" d="M290.3,139.7c2.7-0.4,4.4-1.3,2.1-4.2c-1.8-2.3-1.9-4.9-1.1-7.6c1.4-4.8,2.5-9.7,4.2-14.3
		c5.1-13.2,17.7-17.9,30.1-11.1c11.2,6.2,17.1,16.7,21.9,28.4c-3.8-0.3-5.6-5-8.1-3.8c-2.2,1.1-3,4.9-4.7,7.3
		c-7.9,10.9-24.3,11.3-31.4,1.3c-0.7-1-1.4-2.7-3-1.9c-1.6,0.8-1.1,2.7-0.9,4.1c0.5,3.1,2.8,4.8,5.3,6.2c3.9,2.2,8.1,3.8,12.6,5
		c-0.6,2-2.4,1.2-3.2,2.1C304.7,150.4,296,148.1,290.3,139.7z M312.5,110.6c-3.9,0.1-8.8,4.7-8.9,8.2c0,2,1.4,2.6,2.5,1.5
		c2.2-2.3,5.2-2.7,7.9-4c1.5-0.7,2.8-2.1,2.5-4C316,109.9,313.8,110.8,312.5,110.6z"/>
	<path class="st1" d="M314.4,99.4c3.6,0,7.5,1,11.3,3.1c11.2,6.2,17.1,16.7,21.9,28.4c-3.3-0.3-5.2-4-7.3-4c-0.3,0-0.6,0.1-0.8,0.2
		c-2.2,1.1-3,4.9-4.7,7.3c-4.1,5.7-10.6,8.5-16.8,8.5c-5.7,0-11.2-2.4-14.7-7.2c-0.6-0.8-1.2-2.1-2.2-2.1c-0.2,0-0.5,0.1-0.8,0.2
		c-1.6,0.8-1.1,2.7-0.9,4.1c0.5,3.1,2.8,4.8,5.3,6.2c3.9,2.2,8.1,3.8,12.6,5c-0.6,2-2.4,1.2-3.2,2.1c-9.4-0.7-18.1-3.1-23.8-11.5
		c2.7-0.4,4.4-1.3,2.1-4.2c-1.8-2.3-1.9-4.9-1.1-7.6c1.4-4.8,2.5-9.7,4.2-14.3C299.1,104.5,306.2,99.4,314.4,99.4 M305,120.8
		c0.4,0,0.8-0.2,1.1-0.6c2.2-2.3,5.2-2.7,7.9-4c1.5-0.7,2.8-2.1,2.5-4c-0.3-1.5-1.2-1.7-2.2-1.7c-0.3,0-0.6,0-1,0
		c-0.3,0-0.5,0-0.7-0.1c-3.9,0.1-8.8,4.7-8.9,8.2C303.6,120.1,304.2,120.8,305,120.8 M314.4,90.4L314.4,90.4c-12,0-22.5,7.6-27.2,20
		c-1.4,3.7-2.4,7.4-3.4,11c-0.4,1.4-0.7,2.8-1.1,4.1c-1.1,3.9-1,7.2-0.2,9.9c-0.1,0.2-0.3,0.5-0.4,0.7c-1.3,2.9-1,6.2,0.8,8.7
		c8.4,12.3,21.5,14.6,30.5,15.3c0.2,0,0.5,0,0.7,0c1.4,0,2.7-0.3,3.9-0.9c5.4-1.4,7.3-5.4,7.9-7.7c0.1-0.2,0.1-0.5,0.2-0.8
		c6.3-1.8,11.9-5.7,15.8-11c0.2-0.3,0.4-0.6,0.6-0.9c1.2,0.5,2.6,0.9,4.2,1c0.3,0,0.5,0,0.8,0c2.8,0,5.5-1.3,7.2-3.7
		c1.9-2.5,2.3-5.8,1.1-8.7c-4.9-11.9-11.7-25.1-25.9-32.9C324.9,91.8,319.6,90.4,314.4,90.4L314.4,90.4z"/>
	<path class="st2" d="M155.9,122.9c-2.7,0.6-5,2.5-8,2.4c6.4-16.6,17.2-24.9,29.4-22.9c10.9,1.8,17.7,12.6,18.8,29.9
		c-3.3-1.3-5.6,0.5-8,2.3c-4.2,3.2-8.5,6.4-14,7.3c-9.8,1.5-19.7-7.4-17.4-18.2c0.2-0.3,0.5-0.6,0.4-0.8
		C156.8,122.4,156.3,122.7,155.9,122.9z M172,137.1c-3.9-1.6-6.5-4.3-8.3-7.7c-0.4-0.7-0.5-2.2-2-1.4c-0.9,0.5-1.1,1.5-1,2.6
		C161.2,135.6,166,138.6,172,137.1z M175.5,118.5c2.1-0.4,4.7-0.5,4.9-3.6c0.2-2.7-2.2-2.5-3.9-2.5c-2.4,0-4.9,0.3-5.1,3.4
		C171.2,118.5,173.6,118.1,175.5,118.5z"/>
	<path class="st2" d="M205.9,31.1c26.7-6.8,53.4-6.7,80.2-0.2C259.3,27.9,232.6,27.7,205.9,31.1z"/>
	<path class="st2" d="M374.4,364c1.2-0.4,1.9-1.3,2.3-3.1c1.9,8.5,1.5,16.6,2.1,24.5c-0.9,6.1-2.2,12-7.2,17.9
		C371.6,389.4,374.1,376.7,374.4,364z"/>
	<path class="st2" d="M261.9,387.9c8.9-3.8,17.5-8.1,26-12.5c1.3-0.7,2.9-1.5,4.1,0c1.3,1.6,0.2,3.2-0.9,4.5
		c-3.9,4.5-9,6.8-14.7,7.8C271.7,388.5,266.9,388.8,261.9,387.9z"/>
	<path class="st2" d="M311.1,370.2c-2.3,16.1-11.8,27.6-24.8,36.6C296.7,396,304.6,383.7,311.1,370.2z"/>
	<path class="st2" d="M354.3,188.6c7.1,6.1,2.4,13.9,2.8,20.9c0,0.6-1,0.7-1.5,0c-0.3-8.3-3.5-15.5-8.6-22.6
		C350.1,187,351.8,189.7,354.3,188.6z"/>
	<path class="st2" d="M125.5,63.8c8.4-2.2,16.7-3.6,25.9-3.2C143.3,66.2,135.6,67.1,125.5,63.8z"/>
	<path class="st2" d="M280,216.4c3.6-6.3,7.1-12.5,10.7-18.8C292.1,204.1,287.4,212.4,280,216.4z"/>
	<path class="st2" d="M182.9,93c-2.2,0-3.5-1.1-3.5-3.3c0.1-3.1,2.5-4.2,4.9-4.8c2.3-0.5,3.4,1,3.3,3.2
		C187.4,91,185.5,92.4,182.9,93z"/>
	<path class="st2" d="M167.7,88.9c1.3,0.1,2.6,0.7,2.4,2c-0.3,2.3-2.3,3.1-4.3,3.5c-1.2,0.2-2.5-0.5-2.3-1.9
		C163.8,90.2,165.7,89.4,167.7,88.9z"/>
	<path class="st2" d="M241.7,404.9c-3.6-0.8-7.1-1.7-10.7-2.5c3.9-0.8,7.7-0.9,10.5,2.6L241.7,404.9z"/>
	<path class="st2" d="M211.5,240.4c-1.7-0.1-2.4-0.9-2.4-2.2c0-1.4,0.9-2.2,2.2-2.2c1.3-0.1,2.1,0.9,2.1,2.2
		C213.4,239.5,212.3,240,211.5,240.4z"/>
	<path class="st2" d="M225,237.4c-1.4-0.2-2.2-1-2.2-2.3c0-1.3,0.9-2.2,2.3-2c1.2,0.1,2.2,0.9,2.2,2.2
		C227.2,236.8,226.3,237.4,225,237.4z"/>
	<path class="st2" d="M267.7,245.9c-0.3,1.4-1.2,2-2.5,1.9c-1.2-0.1-1.9-0.8-1.8-1.9c0-1.3,0.9-2.2,2.2-2.2
		C267,243.6,267.7,244.6,267.7,245.9z"/>
	<path class="st2" d="M285.7,238.1c-0.1,1.3-0.7,2.3-2.1,2.3c-1.3,0-2.2-0.8-2.3-2.1c-0.1-1.4,0.8-2.2,2.1-2.3
		C284.8,235.9,285.5,236.8,285.7,238.1z"/>
	<path class="st2" d="M218.1,228.7c1.3,0.2,2.1,1,2,2.3c-0.1,1-0.8,1.8-2.1,1.7c-1.1-0.1-2-0.6-2-1.7
		C215.9,229.7,216.7,228.9,218.1,228.7z"/>
	<path class="st2" d="M274.5,230.7c0.3-1.2,1.1-2,2.4-1.9c1.4,0.1,2,1.2,1.9,2.4c-0.1,1-1,1.6-2.1,1.5
		C275.4,232.7,274.5,232.2,274.5,230.7z"/>
	<path class="st2" d="M236.2,239.5c-0.1,1.3-0.9,2.1-2.3,2.1c-1.1,0-2-0.7-2.2-1.7c-0.2-1.3,0.6-2.2,1.9-2.3
		C235,237.5,235.8,238.3,236.2,239.5z"/>
	<path class="st2" d="M261.4,237.6c1.2,0.3,2,1.1,1.7,2.4c-0.2,1-1,1.7-2.1,1.7c-1.3-0.1-2.2-0.8-2.1-2.2
		C258.9,238.3,259.9,237.6,261.4,237.6z"/>
	<path class="st2" d="M276.7,242.2c-0.1,1.2-0.6,2.3-2,2.4c-1.3,0.1-2.2-0.7-2.4-2c-0.2-1.5,0.8-2,2-2.2
		C275.7,240.2,276.6,240.8,276.7,242.2z"/>
	<path class="st2" d="M220.6,244.5c-2,0.1-2.4-0.9-2.4-2.1c0-1.4,0.8-2.1,2.1-2c1.3,0.1,2.2,0.6,2.1,2.1
		C222.3,243.8,221.3,244.3,220.6,244.5z"/>
	<path class="st2" d="M457.3,121.4c-6.7-5-12.6-10.8-18.8-16.4c-14.9-13.2-27.3-28.6-40.8-43.2c-8.6-9.3-19.3-14.4-32-15.5
		c-11.4-1-22.9-1.9-34.3-3c-5.2-0.5-10.3-1.3-15.4-2c3.2,4,7.5,5.7,11.9,7.1c11.6,3.8,23.8,4.3,35.8,6.2c-2.6,2-6.2,1.5-9.1,3.6
		c3.6,1.2,6.8,2.2,10,3.3c-6.6,1.4-13.1,1-20.5,2.3c7.4,5.3,15.7,3.6,22.7,6.7c-4.4,0-8.8,0-14.6,0c5,2.4,9,3.3,12.6,5.4
		c3.6,2,7.9,2.8,10.6,7.5c-7.9-2.3-14.8-5.2-22.4-4.9c-0.2,0.3-0.4,0.6-0.6,0.9l-0.2,0c4.2,10.5,8.5,21.1,10,32.5
		c-5.7-7-10.1-15-18.8-20.4c2.5,4.5,4.7,7.9,6.3,11.4c5.8,12.2,10.6,24.8,9.5,38.7c2,4.3,0.2,8.3-0.8,12.5c2,8.7,4.8,17.3,4.1,28.1
		c-8.3-10.9-18.4-18.2-28.9-24.9c-0.4,0.3-0.9,0.6-1.3,0.9c4,10.3,12.3,17.2,19.8,24.7c1.5,1.5,3.4,2.9,2.5,5.5
		c7.1,6.1,2.4,13.9,2.8,20.9c0,0.6-1,0.7-1.5,0c-1.9,0.4-2.9-1.3-4.4-2c-6.8-3.5-13.7-6.8-21.4-7.6c6.8,3.7,13.3,7.6,19.1,12.5
		c4.8,4,9,8.4,11.9,14c3.9,7.6,2.6,16.8-2.9,22.8c-0.7,0.7-1.3,1.6-2.5,1.3c-1.2-0.2-1.3-1.4-0.9-1.9c2.2-2.3,0.4-4.9,0-6.9
		c-1.1-5.7-5.5-9.3-10.8-11c-4.3-1.4-7.5,1.8-10,4.9c-1.8,2.3-3.3,4.9-4.9,7.5c-5.3,8.7-12,16.4-21.6,19.6
		c-18.1,6.2-35.4,2.5-50.6-8.7c-9.6-7.1-9.2-26.2,5.1-30.6c6.2-1.9,12.7-3.2,18.1-7.1c3.6-6.3,7.1-12.5,10.7-18.8
		c6.6-18.8-1.3-34-20.4-39.1c-16.8-4.4-33.6-4.4-50.3,0.1c-14.9,4-21.1,12.4-20.8,28c0.1,3.2,0.5,6.3,1.2,9.3
		c2.7,11.6,8.5,20.6,20.8,23.9c3.2,0.9,6.4,1.7,9.3,3.1c6.3,3,11.8,6.9,12.9,14.6c1.1,7.4-1.3,13.8-7.5,17.9
		c-20.3,13.5-51.1,16.4-68.9-10.4c-2.5-3.7-4.8-7.6-7.6-11.1c-3.4-4.2-7.9-4.7-12.4-1.7c-3.8,2.5-6.3,5.9-7,10.5
		c-0.3,2.2-0.6,4.4-0.9,6.9c-7-5.5-8.7-16-5.1-23.3c3.3-6.7,9.7-10.9,13.6-18.2c-6.6,1.8-10.5,6-15.1,11.5
		c-0.1-13.2-4.2-24.2-7.9-35.2c-4.4-13.4-6.2-27.2-4.7-41.4c2.6-24,12.2-45.4,23.3-66.4c1.2-2.2,2.5-4.4,3.9-7.1
		c-9.1,0.1-17.3,1-25.8,3.4c2.3,1.9,5.1,1.4,6.7,3.7c-3.1,1.6-7,0.8-9.7,3.8c3.5,0.8,6.8,1.6,10.8,2.6c-6.5,4-12.7,6.9-17.1,12.3
		c0,0,0,0,0,0c-0.5,0.3-1.1,0.6-1.6,0.8c0.7,0.7,1.5,0.4,2.3,0.2c2.1-0.4,3.9-1.8,6.9-1.3c-1.9,2.1-3.7,3.8-5.2,5.7
		c-1.1,1.4-3.3,2.4-2.9,4.2c0.5,2,3.1,1.5,5.1,1.9c-1.8,2.7-3.3,4.8-4.8,7.1c-0.5,0.7-1.5,2-0.4,2.5c3.7,1.7,1.2,4.1,0.5,5.8
		c-4.8,12.4-6,25.1-4,38.3c2.2,14.1,6.4,27.9,6.7,42.3c0.3,13-0.6,25.7-7.2,37.2c-6.2,10.7-14.2,20.1-23,28.7
		c-3.9,3.8-8.3,6.7-13.6,8.2c-4.9,1.4-9.8,2.1-15.2-0.4c1.5-1.1,2.6-1.9,3.6-2.7c14.4-11.3,17.3-28.7,7.2-43.9
		c-4.2-6.3-9.8-11.4-15.5-16.2c-10.2-8.7-16.2-19-18.5-32.5c-3.6-21.3-1.2-39.7,17.5-53.5c5.3-3.9,9.8-9.1,14.6-13.8
		c0.3,0.2,0.6,0.5,0.9,0.7c-1.4,3.6-2.8,7.1-4.4,11.1c3.8-0.9,4.8-4,6.5-6.2c11.7-15.4,22.6-31.3,34.8-46.3
		c10.5-12.8,23.7-20,40.4-20.8c8-0.4,15.8-2.1,23.5-4.4c4.2-1.3,8.5-2.7,11.6-6.3c-0.5-0.3-0.8-0.6-1-0.6
		c-14.8,2.9-29.8,3.4-44.7,4.6c-16.1,1.3-29.2,8.1-39.4,20.8C77,86.8,58.9,105.3,38.7,121.5c-14.6,11.8-20.2,26.3-17.6,44.9
		c2.9,20.8,8.9,39.5,26.6,52.7c4.5,3.4,8.2,7.8,11.5,12.4c7.4,10.4,7.1,21.1,1.5,32c-1.2,2.3-2.6,4.7-5.6,1.8
		c5.2-13.5,3.1-23.8-7.3-33.6c-3.7-3.5-7.9-6.7-11.9-9.9c-1.1-0.9-2.3-2.5-3.8-2c-1.7,0.6-0.9,2.6-0.9,4
		c-0.9,17.4,0.4,34.6,3.9,51.7C54,368,136,449,246.5,446c5.9-0.2,12,0.3,17.7-2.1c0.5-0.1,1.2-0.1,1.4-0.4c1-1.7-0.9-1.3-1.4-1.4
		c-7.7-1.9-15.5-3.6-23.3-5.5c-27.2-6.7-53.1-16.3-75.8-33.2c-10.8-8.1-18.2-18.1-20.2-32c-2.8-19.7-2.7-40-12.2-58.5
		c2.6,1,3.3,3.2,4.4,5.1c5.7,10.2,10.6,20.8,13.4,32.3c2.3,9.4,6.3,18.2,13.3,25.3c1.1-1.5,0.6-2.6,0-3.8c-3.7-7-6.1-14.5-6.8-22.3
		c-1.4-14.3-6.3-27.1-14.5-38.8c-2.7-3.9-5.3-8-6.2-13.4c2.4,1,3.5,2.7,4.7,4.2c5,6.6,10.1,13.3,17.3,17.4
		c6.1,3.5,13.1,5.6,19.8,7.9c8.4,2.9,14.9,7.8,19.2,15.7c2.8,5.1,6.1,9.9,9.9,14.4c13.1,15.4,30.1,20.3,49.5,17.3
		c18.8-2.9,31.9-14.4,40.6-30.8c4.7-8.8,11.5-14.2,20.7-17.4c15.1-5.3,29.2-12.2,39.1-25.5c0.2-0.2,0.6-0.3,1.8-0.8
		c-6.3,14.1-14.6,25.9-23.9,37.4c4.2-2.2,8.4-4.4,12.6-6.6c-5.9,7.2-8.8,15.2-10.5,23.8c-1.9,10-4.7,19.7-8.1,29.3
		c-0.7,2-1.9,3.9-1.5,6.8c10.7-8,16.2-19.3,22.4-30.2c0.7,15.6-6.3,29.5-9.1,44.4c18.1-15.9,24.9-37.7,31.1-59.9
		c0.4,0.1,0.8,0.2,1.2,0.4c0.4,6.4,0.8,12.8,1.3,19.2c1.2-0.4,1.9-1.3,2.3-3.1c1.9,8.5,1.5,16.6,2.1,24.5c3.4-15.3,1.1-30.6-1-46.8
		c3,3.4,2.4,7.2,5.2,9.6c0.9-12.1-1.8-23.3-5.3-34.3c-5.5-17.2-4-33.3,5.5-48.8c3.4-5.5,3-5.7,7.2-0.6c0.2,0.3,0.4,0.6,0.5,0.8v0
		c-7,14.7-6.6,29.2,0.8,43.7c1.4,2.7,2.4,5.5,3.6,8.2c7.5,16.2,11,33.1,10,50.9c-0.1,1.5-0.8,3.2,0.9,5
		c34.4-43.7,53.7-92,51.7-149.1c-5.3,3.7-9,7.2-12.4,11.1c-4.6,5.3-6.9,11.2-5.8,18.4c0.6,4.1,1.3,8.2,2.6,12.2
		c-2.5,2.9-3.7,0.4-4.8-1.3c-7.5-11.7-6.5-25.4,2.5-36.1c4.5-5.4,10-9.8,15.1-14.5c7.5-6.9,13.3-14.9,15.8-24.9c1.5-6,2.7-12,3.9-18
		C479,150.8,474.3,134,457.3,121.4z M298.2,305.5c10.7-8,18.6-18.3,24.9-29.9c1.2-2.1,2.8-2.1,4.5-1.7c2.6,0.7,3.8,2.9,3.7,6.7
		c0,1.5,0,3-0.8,4.4c-7.1,12.5-17.6,20-31.8,22.4c-0.8,0.1-1.3-0.2-1.6-0.8C296.6,305.5,297.8,305.7,298.2,305.5z M251.3,279.9
		c1.4-6.8,5.2-8.3,11.3-5c3,1.6,5.3,3.9,7.5,6.5c4.6,5.7,9.5,11,16.5,13.9c1.9,0.8,2.9,1.7,2.9,4c0.2,14.7-2.9,28.4-11.9,40.3
		c-4.5,5.9-10.1,9.5-17.8,9.1c-5.5-0.3-8.3-2.3-9.4-7.7c-1.7-8.5-2-17.1-1.9-25.8C248.7,303.3,248.9,291.5,251.3,279.9z
		 M261.1,188.4c-1.7,0.5-5.8-4.1-5.5-6.2c0.3-2.7,2.6-1,3.7-1.5c2.9-0.2,5.7,0.3,5.9,3.3C265.4,186.1,263.2,187.7,261.1,188.4z
		 M229,193.5c-3.4-0.5-6.4-0.3-6.3-3.4c0.1-1.7,1.5-3.8,4.4-3.5c2.6,0.3,4.7,1.5,4.9,3.8C232.1,192.3,230.4,194,229,193.5z
		 M239.5,170.8c3.5,2.3,4.8,5.3,2.6,9.2c-1.6,2.9-4.3,3.9-7.5,3.6c-2.1-0.2-3.8-0.7-3.1-3.6c0.7-3-0.5-4.1-3.5-2.8
		c-0.3,0.1-0.6,0.1-0.9,0.1c-2.1,0.3-4.6,2.8-6.1,0.3c-1.2-2.1,1.1-4.2,2.6-5.9c-5.7-0.6-9.6,1.9-13,6.5c-1.3,1.8-2.3,6.3-5.4,4.3
		c-2.2-1.4-0.4-5,0.9-7.6c2.3-4.7,6-7.7,10.6-9.3c19.7-7.2,39.4-7.2,58.8,1c6.8,2.9,9.5,7.7,8.9,13.5c-0.1,0.9,0.2,2.2-1.1,2.5
		c-1.1,0.3-2-0.4-2.5-1.2C270.2,165.3,254.9,167.8,239.5,170.8z M207.4,294.4c7-3.1,12.7-7.8,17.1-14.1c0.6-0.8,1.2-1.6,2-2.1
		c3.6-2.5,7.1-6.1,12-4.8c4.9,1.3,4.7,6,5.4,9.8c1.6,8.2,1.7,16.5,2.1,22.2c0.6,12.6-0.2,22.6-1.7,32.5c-1.4,9.2-8.5,13.1-17.2,9.5
		c-3.9-1.6-7-4.4-9.6-7.7c-9.3-12.1-12.5-26.2-12.8-41.2C204.5,296.3,205.4,295.2,207.4,294.4z M162.6,278c0.5-2.1,2.2-3.8,4.7-4.4
		c2.7-0.6,3.3,1.3,4.3,3.1c6.2,12.2,13.8,23.2,25.8,30.5c0.7,0.4,1,1.3,1.7,2.1c-5.1,0.3-9.3-1.2-13.4-3.6c-9-5.4-16.6-12.1-22-21.2
		C162.2,282.3,162.1,280,162.6,278z M330.8,301.3c-6.9,7.9-14.6,15.1-24.3,19.6c-5,2.3-8.1,5.9-10.3,10.9
		c-3.6,8.5-8.3,16.2-15.5,22.3c-19.9,16.8-62.9,17.3-78.5-15.5c-4.4-9.3-10.3-15.8-19.3-21c-11.5-6.7-21.4-15.8-27.2-28.4
		c-1.3-2.8-1.7-5.7-1.8-8.7c3.5,0.4,3.7,3.9,5.2,6c8,12.2,18.1,22.3,30.8,29.3c6.3,3.5,10.6,7.9,13.4,14.6
		c12.9,30.6,41.2,33.1,62.1,25.9c14.1-4.8,22.5-15.6,27.9-28.9c2-5,5.2-8.3,9.8-10.8c13.8-7.4,24.7-17.8,33.1-31
		c1.1-1.7,1.9-3.4,4.3-4C339.4,289.7,335.6,295.8,330.8,301.3z M447.6,270.9c-0.1-0.6-0.1-1.2-0.3-1.7
		C447.5,269.8,447.6,270.3,447.6,270.9z M363.6,54.8L363.6,54.8c6.5,1,12.1,3.6,17.1,7.3C375.8,58.4,370.1,55.8,363.6,54.8z
		 M442.1,276.8c-10,3.1-18.2,0.6-25.2-4.9c-11.4-8.9-21.3-19.3-28.5-32c-7.1-12.6-8.1-26.7-7.6-40.8c0.4-9.8,2.2-19.5,3.7-29.2
		c2.9-18.8-1-36.7-6.3-54.5c-0.5-1.6-1.7-3,0.3-4.3c7.8,14.9,11.5,30.8,12.9,47.4c1.4,16.5,0.2,33.2,3.7,49.6
		c2.1,9.8,5.7,18.7,12.7,26.1c6.9,7.2,12.3,15.6,18.2,23.6C429.3,265.6,434.7,271.5,442.1,276.8z"/>
	<path class="st0" d="M352.8,78.8c-0.2,0.3-0.4,0.6-0.6,0.9c-0.2-0.2-0.4-0.5-0.7-0.7C352,78.9,352.4,78.8,352.8,78.8z"/>
	<path class="st0" d="M288.8,138.6c0.7,0.2,1.4,0.3,1.6,1.1C289.5,139.8,289.1,139.2,288.8,138.6z"/>
	<path class="st0" d="M241.5,405c0-0.1,0.1-0.2,0.1-0.3c0,0.1,0.1,0.2,0.1,0.2C241.7,404.9,241.5,405,241.5,405z"/>
	<path class="st1" d="M245.9,305.4c0.6,12.6-0.2,22.6-1.7,32.5c-1.4,9.2-8.5,13.1-17.2,9.5c-3.9-1.6-7-4.4-9.6-7.7
		c-9.3-12.1-12.5-26.2-12.8-41.2c0-2.2,0.9-3.2,2.8-4.1c7-3.1,12.7-7.8,17.1-14.1c0.6-0.8,1.2-1.6,2-2.1c3.6-2.5,7.1-6.1,12-4.8
		c4.9,1.3,4.7,6,5.4,9.8C245.5,291.3,245.5,299.7,245.9,305.4z"/>
	<path class="st1" d="M248.3,315.1c0.3-11.8,0.5-23.6,3-35.2c1.4-6.7,5.2-8.3,11.3-5c3,1.6,5.3,3.9,7.5,6.5
		c4.6,5.7,9.5,11,16.5,13.9c1.9,0.8,2.9,1.7,2.9,4c0.2,14.7-2.9,28.4-11.9,40.3c-4.5,5.9-10.1,9.5-17.8,9.1
		c-5.5-0.3-8.3-2.3-9.4-7.7C248.5,332.4,248.3,323.7,248.3,315.1z"/>
	<path class="st1" d="M378.6,111.1c7.8,14.9,11.5,30.8,12.9,47.4c1.4,16.5,0.2,33.2,3.7,49.6c2.1,9.8,5.7,18.7,12.7,26.1
		c6.9,7.2,12.3,15.6,18.2,23.6c3.2,7.7,8.6,13.7,16,18.9c-10,3.1-18.2,0.6-25.2-4.9c-11.4-8.9-21.3-19.3-28.5-32
		c-7.1-12.6-8.1-26.7-7.6-40.8c0.4-9.8,2.2-19.5,3.7-29.2c2.9-18.8-1-36.7-6.3-54.5C377.8,113.8,376.6,112.4,378.6,111.1z"/>
	<path class="st1" d="M340.5,282c-1.1,7.7-4.9,13.9-9.6,19.4c-6.9,7.9-14.6,15.1-24.3,19.6c-5,2.3-8.1,5.9-10.3,10.9
		c-3.6,8.5-8.3,16.2-15.5,22.3c-19.9,16.8-62.9,17.3-78.5-15.5c-4.4-9.3-10.3-15.8-19.3-21c-11.5-6.7-21.4-15.8-27.2-28.4
		c-1.3-2.8-1.7-5.7-1.8-8.7c3.5,0.4,3.7,3.9,5.2,6c8,12.2,18.1,22.3,30.8,29.3c6.3,3.5,10.6,7.9,13.4,14.6
		c12.9,30.6,41.2,33.1,62.1,25.9c14.1-4.8,22.5-15.6,27.9-28.9c2-5,5.2-8.3,9.8-10.8c13.8-7.4,24.7-17.8,33.1-31
		C337.3,284.3,338.1,282.6,340.5,282z"/>
	<path class="st1" d="M223.6,171.8c-5.7-0.6-9.6,1.9-13,6.5c-1.3,1.8-2.3,6.3-5.4,4.3c-2.2-1.4-0.4-5,0.9-7.6
		c2.3-4.7,6-7.7,10.6-9.3c19.7-7.2,39.4-7.2,58.8,1c6.8,2.9,9.5,7.7,8.9,13.5c-0.1,0.9,0.2,2.2-1.1,2.5c-1.1,0.3-2-0.4-2.5-1.2
		c-10.5-16-25.8-13.6-41.2-10.6C234,168.1,228.9,171.1,223.6,171.8z"/>
	<path class="st1" d="M333.4,157.5c-0.5-6.1-0.4-11.9,5-16.3c4.5-3.7,8.6-3.5,12.4,1c3.1,3.7,4.9,8.1,7.5,12.2
		c2,8.7,4.8,17.3,4.1,28C354,171.5,343.9,164.3,333.4,157.5z"/>
	<path class="st1" d="M331.4,280.7c0,1.5,0,3-0.8,4.4c-7.1,12.5-17.6,20-31.8,22.4c-0.8,0.1-1.3-0.2-1.6-0.8c-0.6-1.1,0.6-0.8,1-1.1
		c10.7-8,18.6-18.3,24.9-29.9c1.2-2.1,2.8-2.1,4.5-1.7C330.3,274.6,331.4,276.8,331.4,280.7z"/>
	<path class="st1" d="M199,309.3c-5.1,0.3-9.3-1.2-13.4-3.6c-9-5.4-16.6-12.1-22-21.2c-1.4-2.3-1.5-4.5-1-6.6
		c0.5-2.1,2.2-3.8,4.7-4.4c2.7-0.6,3.3,1.3,4.3,3.1c6.2,12.2,13.8,23.2,25.8,30.5C198,307.7,198.4,308.5,199,309.3z"/>
	<path class="st1" d="M223.6,171.8c5.3-0.7,10.4-3.6,15.9-1c3.5,2.3,4.8,5.3,2.6,9.2c-1.6,2.9-4.3,3.9-7.5,3.6
		c-2.1-0.2-3.8-0.7-3.1-3.6c0.7-3-0.5-4.1-3.5-2.8c-0.3,0.1-0.6,0.1-0.9,0.1c-2.1,0.3-4.6,2.8-6.1,0.3
		C219.7,175.6,222.1,173.5,223.6,171.8z"/>
	<path class="st1" d="M259.3,180.6c2.9-0.2,5.7,0.3,5.9,3.3c0.2,2.1-2,3.8-4.1,4.4c-1.7,0.5-5.8-4.1-5.5-6.2
		C255.9,179.4,258.2,181.2,259.3,180.6z"/>
	<path class="st1" d="M229,193.5c-3.4-0.5-6.4-0.3-6.3-3.4c0.1-1.7,1.5-3.8,4.4-3.5c2.6,0.3,4.7,1.5,4.9,3.8
		C232.1,192.3,230.4,194,229,193.5z"/>
	<path class="st1" d="M312.5,110.6c1.3,0.3,3.5-0.7,3.9,1.7c0.3,1.9-1,3.3-2.5,4c-2.6,1.3-5.6,1.6-7.9,4c-1.1,1.1-2.5,0.5-2.5-1.5
		C303.7,115.2,308.6,110.6,312.5,110.6z"/>
	<path class="st1" d="M172,137.1c-6,1.5-10.9-1.5-11.3-6.5c-0.1-1.1,0.1-2.1,1-2.6c1.4-0.8,1.6,0.7,2,1.4
		C165.6,132.8,168.2,135.4,172,137.1z"/>
	<path class="st1" d="M175.5,118.5c-1.9-0.4-4.3,0-4.1-2.7c0.2-3.1,2.8-3.4,5.1-3.4c1.7,0,4.1-0.3,3.9,2.5
		C180.2,118,177.6,118.1,175.5,118.5z"/>
	<path class="st1" d="M155.9,122.9c0.4-0.2,0.9-0.6,1.2,0.1c0.1,0.2-0.3,0.5-0.4,0.8C156.4,123.6,156.1,123.3,155.9,122.9z"/>
</g>
</svg>
