<?xml version="1.0" encoding="utf-8"?>
<!-- Generator: Adobe Illustrator 19.2.1, SVG Export Plug-In . SVG Version: 6.00 Build 0)  -->
<svg version="1.1" id="Layer_1" xmlns="http://www.w3.org/2000/svg" xmlns:xlink="http://www.w3.org/1999/xlink" x="0px" y="0px"
	 viewBox="0 0 194 49.7" style="enable-background:new 0 0 194 49.7;" xml:space="preserve">
<style type="text/css">
	.st0{fill:#D13894;}
</style>
<g>
	<g>
		<path class="st0" d="M35,49H15.2C6,49-0.5,44.6-0.5,36c0-7.4,5.4-11.7,11.6-11.9V24C5.2,23.6,0.9,18.9,0.9,13.1
			c0-8,6-11.9,13.5-11.9H35V49z M33.6,2.5H14.4C7.6,2.5,2.3,5.9,2.3,13.1c0,6.8,5.8,10.3,12.1,10.3h19.2V2.5z M33.6,24.7H14.4
			c-6.8,0-13.6,2.9-13.6,11.3c0,7.8,6,11.6,13.8,11.6h19V24.7z"/>
		<path class="st0" d="M76.4,1.2h2.2v3h-1.3V2.8h-0.1L56.8,49h-1.5L35,2.8h-0.1V49h-1.3V1.2h2.2L56,47.3h0.1L76.4,1.2z"/>
		<path class="st0" d="M102,34.9l5.8-20.1l-4.2-13.4h-4V0h21.7v1.3h-4.1l10.4,33.1L136,1.4h-7.1V0h14v1.3h-4.6l-12.9,48.3h-6.2
			l-10.4-31.6l-9.1,31.6h-6.1L76.1,1.4h-3.3V0h22.7v1.3h-4.9L102,34.9z"/>
		<path class="st0" d="M193.3,23.7c0,9.6-2.7,16.3-8.1,20.1c-5,3.5-11.8,5.2-20.6,5.2h-19.8v-1.3h4.6V1.4h-4.6V0h21.6
			c9,0,15.7,1.8,20.1,5.5C191.1,9.2,193.3,15.2,193.3,23.7z M163.1,47.7h2.7c4.7,0,8.1-1.7,10.1-5c2-3.3,3-8.9,3-16.8v-4.1
			c0-10.5-2-16.8-6-19c-1.9-1-4.6-1.5-8.1-1.5h-1.7V47.7z"/>
	</g>
</g>
</svg>
